<svg xmlns="http://www.w3.org/2000/svg" viewBox="0 0 640.9473 167.8628">
  <g id="full-rgb">
    <g>
      <path id="fullLogo" d="M105.4019,88.0122c0,28.0361-23.6,50.749-52.7007,50.749a37.3531,37.3531,0,0,1-26.0845-10.6465v39.7481H0V88.0122c0-28.0361,23.6-50.749,52.7012-50.749S105.4019,59.9761,105.4019,88.0122Zm-26.6167,0a26.6165,26.6165,0,1,0-26.6163,26.6172A26.5812,26.5812,0,0,0,78.7852,88.0122Z" style="fill: #464547"/>
      <path id="fullLogo-2" data-name="fullLogo" d="M180.4639,40.1025h26.6167v47.91c0,28.0361-19.1641,50.749-48.62,50.749s-48.62-22.7129-48.62-50.749v-47.91h26.6167v47.91c0,14.7285,7.2754,26.6172,22.0034,26.6172s22.003-11.8887,22.003-26.6172Z" style="fill: #464547"/>
      <path id="fullLogo-3" data-name="fullLogo" d="M215.0669,8.1626h26.6167v127.76H215.0669Z" style="fill: #464547"/>
      <path id="fullLogo-4" data-name="fullLogo" d="M325.6167,106.1118c0,20.583-18.4541,32.6494-39.0376,32.6494s-39.0381-12.0664-39.0381-32.6494h26.6167c0,8.1621,6.5654,10.292,12.4214,10.292S299,113.3872,299,107.1763c0-4.4356-5.8555-8.5176-13.8408-9.5821-18.6314-2.3066-36.5532-13.663-36.5532-28.7461,0-19.5185,17.39-31.5849,37.9731-31.5849s37.9731,12.0664,37.9731,32.65H297.9355c0-8.1626-5.5009-10.292-11.3564-10.292s-11.3564,2.1294-11.3564,8.5176c0,5.6782,11.7114,10.1142,22.0029,11.3564C311.2437,81.0918,325.6167,89.9644,325.6167,106.1118Z" style="fill: #464547"/>
      <path id="fullLogo-5" data-name="fullLogo" d="M433.5039,88.0122a52.3914,52.3914,0,0,1-.8877,9.2275H355.251a26.8139,26.8139,0,0,0,25.02,17.39,26.4864,26.4864,0,0,0,20.9385-10.292h29.456c-7.0976,20.0508-26.9716,34.4238-50.3945,34.4238-29.456,0-53.2334-22.7129-53.2334-50.749s23.7774-50.749,53.2334-50.749S433.5039,59.9761,433.5039,88.0122ZM405.29,78.7852a26.6933,26.6933,0,0,0-50.039,0Z" style="fill: #464547"/>
      <path id="fullLogo-6" data-name="fullLogo" d="M604.5674,88.0122v47.91H579.7246V124.0337a33.7269,33.7269,0,0,1-27.8584,14.7275c-29.1006,0-52.7012-22.7129-52.7012-50.749s23.6006-50.749,52.7012-50.749S604.5674,59.9761,604.5674,88.0122Zm-25.5528,0a26.6162,26.6162,0,1,0-26.6162,26.6172A26.5811,26.5811,0,0,0,579.0146,88.0122Z" style="fill: #464547"/>
      <path id="fullLogo-7" data-name="fullLogo" d="M640.9473,15.26A15.26,15.26,0,1,1,625.6865,0,15.26,15.26,0,0,1,640.9473,15.26ZM612.3779,40.1025h26.6172v95.82H612.3779Z" style="fill: #464547"/>
      <path id="fullLogo-8" data-name="fullLogo" d="M479.6806,128.9522a4.3925,4.3925,0,0,1-4.372-3.9629l6.6095-22.6208,4.6653-15.1513a4.39,4.39,0,0,1,4.1958-3.0982h15.0477a4.39,4.39,0,0,1,0,8.78H494.021l-10.1474,32.9545A4.3908,4.3908,0,0,1,479.6806,128.9522Z" style="fill: #cc1a2b"/>
      <path id="fullLogo-9" data-name="fullLogo" d="M479.6806,128.9522a4.3925,4.3925,0,0,1-4.372-3.9629l-6.3719-65.14L465.461,22.9927a4.39,4.39,0,0,1,8.7131.2089l7.744,79.1669,1.9555,23.4854A4.3908,4.3908,0,0,1,479.6806,128.9522Z" style="fill: #a5181c"/>
      <path id="fullLogo-10" data-name="fullLogo" d="M462.9316,100.848a4.39,4.39,0,0,1-8.5351.67L457.0394,80.49l8.4216-57.4976a4.39,4.39,0,0,1,8.7131.2089Z" style="fill: #eb1b3c"/>
      <path id="fullLogo-11" data-name="fullLogo" d="M462.9316,100.848a4.39,4.39,0,0,1-8.5351.67l-6.7013-21.5-4.7518,8.9981a4.39,4.39,0,0,1-3.8821,2.34H426.5286a4.39,4.39,0,0,1,0-8.78h9.8864L444.8622,66.58a4.39,4.39,0,0,1,8.0734.7437L457.0394,80.49Z" style="fill: #eb1b3c"/>
    </g>
  </g>
</svg>
